# xmcd
#
# Track frame offsets: 
#        150
#        11617
#        24173
#        35846
#        48338
#        62342
#        74519
#        86224
#        96995
#        107991
#        119985
#        131027
#        145038
#        158452
#        171729
#        184833
#        196734
#        206853
#        218515
#        230094
#        240702
#
# Disc length: 3345 seconds
#
# Revision: 4
# Processed by: cddbd v1.5.2PL0 Copyright (c) Steve Scherf et al.
# Submitted via: ExactAudioCopy v0.99pb4
#
DISCID=3a0d0f15
DTITLE=Fats Waller - Old Plantation  [CD 1-10]
DYEAR=2005
DGENRE=Jazz
TTITLE0=You're Laughing At Met
TTITLE1=I Can't Break The Habit Of You
TTITLE2=Did Anyone Ever Tell You ¿
TTITLE3=When Love Is Young
TTITLE4=The Meanest Thing You Ever Did Was Kiss Me
TTITLE5=Cryin' Mood
TTITLE6=Where Is The Sun ¿
TTITLE7=You've Been Reading My Mail
TTITLE8=To A Sweet Pretty Thing
TTITLE9=Old Plantation
TTITLE10=Spring Cleaning
TTITLE11=Honeysuckle Rose
TTITLE12=Blues
TTITLE13=You Showed Me The Way  (Vocal)
TTITLE14=You Showed Me The Way  (Instr.)
TTITLE15=Boo-Hoo
TTITLE16=The Love Bug Will Bite You  (Tomlin)
TTITLE17=San Anton'  (Vocal)
TTITLE18=San Anton'  (Instr.)
TTITLE19=I'Ve Got A New Lease On Love  (Vocal)
TTITLE20=I'Ve Got A New Lease On Love  (Instr.)
EXTD=
EXTT0=
EXTT1=
EXTT2=
EXTT3=
EXTT4=
EXTT5=
EXTT6=
EXTT7=
EXTT8=
EXTT9=
EXTT10=
EXTT11=
EXTT12=
EXTT13=
EXTT14=
EXTT15=
EXTT16=
EXTT17=
EXTT18=
EXTT19=
EXTT20=
PLAYORDER=
